Coordinates
version=1
nRows=13
nColumns=22
inDegrees=yes

Units are S.I. units (second, meters, Newtons, ...)
If the header above contains a line with 'inDegrees', this indicates whether rotational values are in degrees (yes) or radians (no).

endheader
time	pelvis_tilt	pelvis_list	pelvis_rotation	pelvis_tx	pelvis_ty	pelvis_tz	hip_flexion_r	hip_adduction_r	hip_rotation_r	knee_angle_r	ankle_angle_r	subtalar_angle_r	hip_flexion_l	hip_adduction_l	hip_rotation_l	knee_angle_l	ankle_angle_l	subtalar_angle_l	lumbar_extension	lumbar_bending	lumbar_rotation
      4.49000000	     -0.98747998	      3.47858704	     77.70447404	      0.74057671	      1.06519376	      0.17803948	     18.16916107	     -3.63602681	      3.23647893	    -12.14730560	      5.70458543	      7.60850622	     -7.18366363	      6.80217913	      3.32020613	    -14.63447029	     17.04376381	     -6.79321077	     -5.44353136	     -4.76144241	     -8.92152363
      4.50000000	     -0.90646712	      3.37417559	     78.08711996	      0.74331936	      1.06438437	      0.17119927	     17.94504824	     -3.35465998	      3.79157746	    -11.19821728	      5.29701771	      7.78150338	     -7.35579765	      6.54042324	      3.63390709	    -14.97198226	     17.36239919	     -6.49433605	     -5.25346320	     -4.62621735	     -8.83334087
      4.51000000	     -0.84485431	      3.24230827	     78.47288853	      0.74611381	      1.06355473	      0.16431192	     17.77722441	     -3.08807956	      4.31441741	    -10.50196275	      4.87257565	      7.78510630	     -7.49726952	      6.29114582	      3.98221091	    -15.30509055	     17.62651073	     -6.32112885	     -5.02137654	     -4.51139430	     -8.74907296
      4.52000000	     -0.73499548	      3.15488948	     78.87262917	      0.74895526	      1.06282423	      0.15731264	     17.55211926	     -2.78554578	      4.78756470	    -10.03365074	      4.50300566	      7.55014316	     -7.68329667	      5.98755615	      4.27975472	    -15.66490228	     17.90514259	     -5.95565491	     -4.84008275	     -4.34813427	     -8.70851977
      4.53000000	     -0.64804477	      3.06137131	     79.27225856	      0.75186091	      1.06212061	      0.15029745	     17.37932335	     -2.49884733	      5.21756884	     -9.83680215	      4.01754498	      7.06670473	     -7.86136865	      5.70600792	      4.63388246	    -16.01488986	     18.14223078	     -5.63155880	     -4.64638402	     -4.21965748	     -8.66209566
      4.54000000	     -0.53174597	      2.96311681	     79.68269940	      0.75480527	      1.06146352	      0.14323268	     17.23273178	     -2.18058583	      5.58999340	     -9.87807789	      3.43595828	      6.39867249	     -8.02114432	      5.38650373	      4.97556026	    -16.39670975	     18.34690004	     -5.34173711	     -4.45011339	     -4.05695624	     -8.64980716
      4.55000000	     -0.40773155	      2.87506039	     80.09620378	      0.75779077	      1.06089639	      0.13614389	     17.10739418	     -1.85443757	      5.90324264	    -10.13023752	      2.69506857	      5.50751881	     -8.17666068	      5.05617741	      5.31258147	    -16.79992444	     18.49374654	     -5.01247168	     -4.26743120	     -3.89186143	     -8.65171929
      4.56000000	     -0.25803613	      2.79394532	     80.51414904	      0.76080129	      1.06042360	      0.12903061	     17.00362746	     -1.50616664	      6.14169568	    -10.55526168	      1.83929667	      4.44871583	     -8.31955803	      4.69692460	      5.64335290	    -17.24082854	     18.61253876	     -4.65430533	     -4.09700711	     -3.70162106	     -8.66583940
      4.57000000	     -0.06846199	      2.71911324	     80.93469719	      0.76382625	      1.06007130	      0.12189680	     16.92932178	     -1.12693579	      6.26599210	    -11.12802256	      0.93608394	      3.34810830	     -8.44666645	      4.29360406	      5.95159050	    -17.72566082	     18.70828676	     -4.28852291	     -3.94134607	     -3.46586559	     -8.70911852
      4.58000000	      0.11817993	      2.66627828	     81.34798996	      0.76683288	      1.05988659	      0.11476238	     16.86374554	     -0.76850113	      6.30966214	    -11.78229596	      0.08467091	      2.15441180	     -8.56897136	      3.90241817	      6.27095492	    -18.24650154	     18.70974415	     -3.83778142	     -3.81158756	     -3.23777998	     -8.72941285
      4.59000000	      0.33317980	      2.62683362	     81.75743316	      0.76982194	      1.05987843	      0.10761687	     16.81333109	     -0.40519447	      6.23689057	    -12.50069705	     -0.61065642	      1.11170325	     -8.67876221	      3.48494444	      6.57802498	    -18.81002149	     18.63543198	     -3.35944070	     -3.70088477	     -2.97620471	     -8.76955153
      4.60000000	      0.56591943	      2.60592421	     82.15735431	      0.77278306	      1.06005642	      0.10045696	     16.77006111	     -0.05129251	      6.04695213	    -13.26301860	     -1.08003657	      0.27418085	     -8.78048340	      3.05742444	      6.88145114	    -19.41381985	     18.48970169	     -2.84596371	     -3.61095257	     -2.69328918	     -8.81573294
      4.61000000	      0.80530150	      2.60516250	     82.55625142	      0.77570505	      1.06041871	      0.09329118	     16.71337271	      0.28146558	      5.78966014	    -14.03283636	     -1.31391726	     -0.35188151	     -8.86207138	      2.62696806	      7.16205983	    -20.07476499	     18.24411075	     -2.27049586	     -3.54190729	     -2.40041819	     -8.88558507
